#!OML:ASF E:\Steps\Project 1\Capture day 1\Session 2\Subject.ASF
:FULLY-SPECIFIED
:DEGREES
142
root -0.334077 15.949 20.0339 -166.186 -1.77055 194.736
lowerback -19.6325 -4.04606 -8.42066
upperback 2.22557 -3.57338 1.96347
thorax 14.3535 -2.40298 5.91389
lowerneck -0.738483 -9.78306 -0.223613
upperneck 17.3452 -13.3922 6.26121
head 5.82384 -5.74602 1.30173
rclavicle -4.37326e-015 1.27222e-014
rhumerus -44.5179 -17.0027 -77.5955
rradius 39.3499
rwrist -7.09742
rhand -9.16606 -50.7424
rfingers 7.12502
rthumb 16.7866 -80.0367
lclavicle -4.37326e-015 1.27222e-014
lhumerus -35.8253 -2.84744 72.5906
lradius 32.1028
lwrist 1.53353
lhand -21.3329 -12.0097
lfingers 7.12502
lthumb 5.05295 17.9101
rfemur -59.9904 -12.0207 2.52736
rtibia 50.6462
rfoot -13.6699 -16.0247
rtoes -13.6101
lfemur -19.1303 -11.9815 -2.9989
ltibia 35.6635
lfoot -27.3254 7.69489
ltoes -40.1494
143
root -0.291278 15.921 19.9776 -166.371 -1.94756 195.096
lowerback -19.7583 -3.99256 -8.33508
upperback 2.26474 -3.59159 1.97079
thorax 14.4672 -2.44569 5.85426
lowerneck -0.685724 -9.85476 -0.0905378
upperneck 17.2478 -13.502 6.33946
head 5.78535 -5.78994 1.30355
rclavicle 2.18663e-014 1.27222e-014
rhumerus -44.7688 -17.0798 -77.672
rradius 39.4774
rwrist -7.35897
rhand -9.20014 -50.3728
rfingers 7.12502
rthumb 16.7538 -79.6699
lclavicle 2.18663e-014 1.27222e-014
lhumerus -35.8832 -3.15599 72.3204
lradius 32.3107
lwrist 1.48984
lhand -21.2693 -12.1459
lfingers 7.12502
lthumb 5.11436 17.7724
rfemur -59.2893 -12.0721 2.07224
rtibia 48.6625
rfoot -12.7458 -16.2471
rtoes -14.5342
lfemur -19.0225 -12.0041 -2.46282
ltibia 36.2461
lfoot -27.7006 7.82546
ltoes -41.0387
144
root -0.249669 15.8925 19.9165 -166.381 -2.05739 195.081
lowerback -20.1127 -4.06935 -8.61543
upperback 2.28771 -3.58405 1.90398
thorax 14.7206 -2.4712 5.92922
lowerneck -0.85695 -9.95448 0.047214
upperneck 17.3525 -13.656 6.30474
head 5.8418 -5.84861 1.25182
rclavicle -7.95139e-016 -5.08889e-014
rhumerus -44.9583 -17.0831 -77.7838
rradius 39.5312
rwrist -8.1252
rhand -10.3456 -50.5614
rfingers 7.12502
rthumb 15.6508 -79.9484
lclavicle -7.95139e-016 -5.08889e-014
lhumerus -35.8102 -3.28547 72.0253
lradius 32.4044
lwrist 1.3354
lhand -21.0855 -12.2317
lfingers 7.12502
lthumb 5.2918 17.6823
rfemur -58.7951 -12.3941 1.30657
rtibia 46.7716
rfoot -11.6627 -16.3699
rtoes -16.8542
lfemur -18.9966 -12.0648 -2.38602
ltibia 36.7237
lfoot -28.0419 7.90396
ltoes -41.5646
145
root -0.222868 15.8583 19.8656 -166.507 -2.41042 195.193
lowerback -20.0286 -4.1335 -8.50265
upperback 2.23535 -3.70493 1.87495
thorax 14.6184 -2.51001 5.79197
lowerneck -0.978778 -10.0103 -0.0462081
upperneck 17.523 -13.75 6.38075
head 5.93165 -5.88015 1.27323
rclavicle -2.42517e-014 9.54166e-015
rhumerus -45.2383 -17.1613 -77.5537
rradius 39.4559
rwrist -7.57448
rhand -9.66203 -50.3374
rfingers 7.12502
rthumb 16.3091 -79.6716
lclavicle -2.42517e-014 9.54166e-015
lhumerus -36.0004 -3.47717 71.7901
lradius 32.6772
lwrist 1.28983
lhand -20.9404 -12.1039
lfingers 7.12502
lthumb 5.43193 17.8064
rfemur -58.0422 -12.9265 0.710244
rtibia 44.918
rfoot -10.527 -16.2539
rtoes -17.9732
lfemur -18.9023 -12.3076 -2.25296
ltibia 37.2029
lfoot -28.2134 7.89794
ltoes -41.9954
146
root -0.161426 15.8343 19.7988 -166.609 -2.41787 195.066
lowerback -19.855 -4.21626 -9.12787
upperback 1.99448 -3.68603 1.82493
thorax 14.2702 -2.53168 6.10771
lowerneck -0.856632 -10.071 -0.0505652
upperneck 17.8433 -13.8066 6.30232
head 6.00919 -5.88718 1.24847
rclavicle -1.43125e-014 -3.18055e-014
rhumerus -46.0053 -17.103 -77.3109
rradius 39.583
rwrist -7.1403
rhand -8.82454 -50.7849
rfingers 7.12502
rthumb 17.1153 -80.051
lclavicle -1.43125e-014 -3.18055e-014
lhumerus -36.6653 -4.05608 71.5749
lradius 33.1289
lwrist 1.49179
lhand -21.0551 -11.8996
lfingers 7.12502
lthumb 5.32117 18.0136
rfemur -57.4469 -12.6889 -0.364723
rtibia 43.1586
rfoot -9.8742 -16.5556
rtoes -16.5304
lfemur -18.7364 -12.2267 -2.21553
ltibia 37.6774
lfoot -28.6031 7.77245
ltoes -41.6362
147
root -0.10914 15.7599 19.6598 -167.666 -2.47757 193.115
lowerback -19.5189 -4.54572 -11.2972
upperback 2.18429 -3.54311 1.18342
thorax 14.3975 -2.61755 6.65651
lowerneck -0.955278 -10.1261 0.015717
upperneck 18.3833 -13.8563 6.08869
head 6.17942 -5.87824 1.15646
rclavicle 1.90833e-014 6.67916e-014
rhumerus -46.8476 -16.9919 -77.0973
rradius 39.823
rwrist -6.93616
rhand -8.16779 -51.8414
rfingers 7.12502
rthumb 17.7474 -81.0515
lclavicle 1.90833e-014 6.67916e-014
lhumerus -37.1857 -4.42155 71.2854
lradius 33.3628
lwrist 1.48719
lhand -21.1621 -12.0381
lfingers 7.12502
lthumb 5.21782 17.8777
rfemur -55.5112 -14.0489 -3.25789
rtibia 41.5243
rfoot -9.20616 -15.5304
rtoes -15.8088
lfemur -16.662 -13.301 -5.10087
ltibia 37.3843
lfoot -29.0706 8.13765
ltoes -42.4098
148
root -0.0639466 15.7512 19.6365 -167.419 -2.59142 193.856
lowerback -19.1487 -4.4291 -10.7926
upperback 1.79947 -3.60141 1.33484
thorax 13.7003 -2.56893 6.54613
lowerneck -1.09349 -10.1808 0.0948084
upperneck 18.7773 -13.9219 5.94607
head 6.3153 -5.88206 1.08294
rclavicle -1.49089e-014 9.54166e-014
rhumerus -47.4145 -16.9434 -76.9728
rradius 39.8147
rwrist -6.67056
rhand -7.90261 -52.1725
rfingers 7.12502
rthumb 18.0025 -81.3593
lclavicle -1.49089e-014 9.54166e-014
lhumerus -37.4515 -4.57974 70.8901
lradius 33.5234
lwrist 1.52972
lhand -20.8304 -11.7466
lfingers 7.12502
lthumb 5.53806 18.1611
rfemur -55.3902 -13.5024 -3.26149
rtibia 39.8793
rfoot -8.88455 -16.2542
rtoes -14.8254
lfemur -17.3528 -12.9959 -3.8834
ltibia 38.3436
lfoot -29.3789 8.54713
ltoes -44.2441
149
root 0.0023131 15.7499 19.6222 -167.478 -2.65668 196.304
lowerback -18.6602 -4.02007 -8.82171
upperback 1.55372 -3.65276 1.96205
thorax 13.0269 -2.44326 6.14562
lowerneck -0.923274 -10.2961 0.167544
upperneck 18.7452 -14.0649 5.90528
head 6.27324 -5.95208 1.06064
rclavicle 1.19271e-014 -2.22639e-014
rhumerus -47.8072 -16.851 -76.9951
rradius 39.726
rwrist -6.85776
rhand -8.17416 -51.7403
rfingers 7.12502
rthumb 17.7413 -80.951
lclavicle 1.19271e-014 -2.22639e-014
lhumerus -37.6867 -4.9111 70.5404
lradius 33.8363
lwrist 1.80024
lhand -21.2503 -12.2761
lfingers 7.12502
lthumb 5.13271 17.6418
rfemur -55.0373 -11.418 -1.66226
rtibia 37.9286
rfoot -8.78897 -17.7396
rtoes -13.8195
lfemur -17.8449 -11.9368 -0.429571
ltibia 39.2984
lfoot -29.8246 7.93633
ltoes -43.6486
150
root 0.0520172 15.7296 19.5827 -167.607 -2.78412 197.005
lowerback -19.6576 -3.92234 -8.18449
upperback 2.21883 -3.53512 1.88988
thorax 14.3239 -2.39683 5.69654
lowerneck -0.991645 -10.3008 0.329899
upperneck 17.8769 -14.1821 6.49992
head 6.04623 -6.01793 1.22061
rclavicle -2.50469e-014 6.67916e-014
rhumerus -46.8968 -17.4924 -77.4692
rradius 39.4282
rwrist -6.96902
rhand -8.5152 -51.128
rfingers 7.12502
rthumb 17.4131 -80.368
lclavicle -2.50469e-014 6.67916e-014
lhumerus -36.6063 -5.31253 69.9906
lradius 34.1122
lwrist 2.16147
lhand -21.2065 -12.1866
lfingers 7.12502
lthumb 5.17498 17.7302
rfemur -54.4973 -10.8864 -1.69401
rtibia 36.3749
rfoot -8.45762 -18.426
rtoes -13.3016
lfemur -17.8568 -11.7502 0.603843
ltibia 39.8775
lfoot -30.3047 7.18871
ltoes -41.7648
151
root 0.0936748 15.7112 19.5434 -167.5 -2.83181 197.219
lowerback -18.6558 -3.91651 -8.33472
upperback 1.45255 -3.64864 2.07604
thorax 12.8759 -2.40553 5.99922
lowerneck -0.653023 -10.3208 -0.0769776
upperneck 18.3682 -14.1504 6.49451
head 6.1712 -5.9897 1.29321
rclavicle 2.88238e-014 7.63333e-014
rhumerus -48.2031 -16.9394 -76.961
rradius 39.3623
rwrist -7.11393
rhand -8.73765 -50.4614
rfingers 7.12502
rthumb 17.199 -79.7203
lclavicle 2.88238e-014 7.63333e-014
lhumerus -37.9212 -5.64731 69.9867
lradius 34.681
lwrist 2.23622
lhand -20.955 -11.7663
lfingers 7.12502
lthumb 5.41783 18.1444
rfemur -54.2895 -10.8244 -2.0936
rtibia 34.9598
rfoot -7.94631 -18.9896
rtoes -12.8015
lfemur -18.0216 -11.8131 1.01082
ltibia 40.404
lfoot -30.6616 7.31619
ltoes -41.915
